<mxfile host="app.diagrams.net" modified="2021-10-23T02:50:59.717Z" agent="5.0 (Windows NT 10.0; Win64; x64) AppleWebKit/537.36 (KHTML, like Gecko) Chrome/93.0.4577.63 Safari/537.36" etag="q99aQtqXAxZzMTmHwL1U" version="15.2.5" type="github">
  <diagram id="hAlvQEQZmwfHhiAsySbr" name="第 1 页">
    <mxGraphModel dx="2425" dy="684" grid="1" gridSize="10" guides="1" tooltips="1" connect="1" arrows="1" fold="1" page="1" pageScale="1" pageWidth="827" pageHeight="1169" math="0" shadow="0">
      <root>
        <mxCell id="0" />
        <mxCell id="1" parent="0" />
        <mxCell id="vxcYbO20Ohb1d8lzNLRG-107" value="" style="rounded=0;whiteSpace=wrap;html=1;" vertex="1" parent="1">
          <mxGeometry x="623" y="490" width="160" height="310" as="geometry" />
        </mxCell>
        <mxCell id="vxcYbO20Ohb1d8lzNLRG-1" value="Mysql&lt;br&gt;数据库" style="rounded=1;whiteSpace=wrap;html=1;fillColor=#FFD966;" vertex="1" parent="1">
          <mxGeometry x="643" y="670" width="120" height="60" as="geometry" />
        </mxCell>
        <mxCell id="vxcYbO20Ohb1d8lzNLRG-2" value="Redis&lt;br&gt;缓存服务" style="rounded=1;whiteSpace=wrap;html=1;fillColor=#FFD966;" vertex="1" parent="1">
          <mxGeometry x="643" y="590" width="120" height="60" as="geometry" />
        </mxCell>
        <mxCell id="vxcYbO20Ohb1d8lzNLRG-3" value="OOS/FastDFS&lt;br&gt;分布式资源存储服务" style="rounded=1;whiteSpace=wrap;html=1;fillColor=#FFD966;" vertex="1" parent="1">
          <mxGeometry x="643" y="510" width="120" height="60" as="geometry" />
        </mxCell>
        <mxCell id="vxcYbO20Ohb1d8lzNLRG-100" value="注册" style="edgeStyle=orthogonalEdgeStyle;rounded=0;orthogonalLoop=1;jettySize=auto;html=1;exitX=0.5;exitY=0;exitDx=0;exitDy=0;entryX=0.367;entryY=1.037;entryDx=0;entryDy=0;entryPerimeter=0;" edge="1" parent="1" source="vxcYbO20Ohb1d8lzNLRG-4" target="vxcYbO20Ohb1d8lzNLRG-46">
          <mxGeometry relative="1" as="geometry" />
        </mxCell>
        <mxCell id="vxcYbO20Ohb1d8lzNLRG-102" value="SpringCloud Stream" style="edgeStyle=orthogonalEdgeStyle;rounded=0;orthogonalLoop=1;jettySize=auto;html=1;entryX=0.5;entryY=0;entryDx=0;entryDy=0;" edge="1" parent="1" target="vxcYbO20Ohb1d8lzNLRG-22">
          <mxGeometry relative="1" as="geometry">
            <mxPoint x="476" y="780" as="sourcePoint" />
          </mxGeometry>
        </mxCell>
        <mxCell id="vxcYbO20Ohb1d8lzNLRG-103" value="数据/日志收集" style="edgeStyle=orthogonalEdgeStyle;rounded=0;orthogonalLoop=1;jettySize=auto;html=1;entryX=0.5;entryY=0;entryDx=0;entryDy=0;exitX=0.377;exitY=1.008;exitDx=0;exitDy=0;exitPerimeter=0;" edge="1" parent="1" source="vxcYbO20Ohb1d8lzNLRG-4" target="vxcYbO20Ohb1d8lzNLRG-20">
          <mxGeometry relative="1" as="geometry">
            <mxPoint x="223" y="900" as="targetPoint" />
            <mxPoint x="251" y="780" as="sourcePoint" />
          </mxGeometry>
        </mxCell>
        <mxCell id="vxcYbO20Ohb1d8lzNLRG-105" value="服务发现/获取配置" style="edgeStyle=orthogonalEdgeStyle;rounded=0;orthogonalLoop=1;jettySize=auto;html=1;entryX=0.25;entryY=0;entryDx=0;entryDy=0;exitX=1;exitY=0.5;exitDx=0;exitDy=0;" edge="1" parent="1" source="vxcYbO20Ohb1d8lzNLRG-34" target="vxcYbO20Ohb1d8lzNLRG-4">
          <mxGeometry relative="1" as="geometry">
            <mxPoint x="190" y="250" as="sourcePoint" />
          </mxGeometry>
        </mxCell>
        <mxCell id="vxcYbO20Ohb1d8lzNLRG-109" style="edgeStyle=orthogonalEdgeStyle;rounded=0;orthogonalLoop=1;jettySize=auto;html=1;exitX=1;exitY=0.5;exitDx=0;exitDy=0;" edge="1" parent="1" source="vxcYbO20Ohb1d8lzNLRG-4">
          <mxGeometry relative="1" as="geometry">
            <mxPoint x="620" y="640" as="targetPoint" />
          </mxGeometry>
        </mxCell>
        <mxCell id="vxcYbO20Ohb1d8lzNLRG-4" value="" style="rounded=0;whiteSpace=wrap;html=1;" vertex="1" parent="1">
          <mxGeometry x="110" y="500" width="450" height="280" as="geometry" />
        </mxCell>
        <mxCell id="vxcYbO20Ohb1d8lzNLRG-20" value="ELK&lt;br&gt;日志聚合系统" style="rounded=0;whiteSpace=wrap;html=1;fillColor=#FFF2CC;" vertex="1" parent="1">
          <mxGeometry x="200" y="920" width="160" height="70" as="geometry" />
        </mxCell>
        <mxCell id="vxcYbO20Ohb1d8lzNLRG-22" value="RabbitMQ、Kafka&lt;br&gt;消息中间件" style="rounded=0;whiteSpace=wrap;html=1;fillColor=#FF99FF;" vertex="1" parent="1">
          <mxGeometry x="396" y="920" width="160" height="70" as="geometry" />
        </mxCell>
        <mxCell id="vxcYbO20Ohb1d8lzNLRG-71" style="edgeStyle=orthogonalEdgeStyle;rounded=0;orthogonalLoop=1;jettySize=auto;html=1;exitX=1;exitY=0.5;exitDx=0;exitDy=0;entryX=0;entryY=0.5;entryDx=0;entryDy=0;" edge="1" parent="1" source="vxcYbO20Ohb1d8lzNLRG-23" target="vxcYbO20Ohb1d8lzNLRG-4">
          <mxGeometry relative="1" as="geometry" />
        </mxCell>
        <mxCell id="vxcYbO20Ohb1d8lzNLRG-99" style="edgeStyle=orthogonalEdgeStyle;rounded=0;orthogonalLoop=1;jettySize=auto;html=1;exitX=0.25;exitY=1;exitDx=0;exitDy=0;entryX=0.315;entryY=-0.005;entryDx=0;entryDy=0;entryPerimeter=0;" edge="1" parent="1" source="vxcYbO20Ohb1d8lzNLRG-23" target="vxcYbO20Ohb1d8lzNLRG-29">
          <mxGeometry relative="1" as="geometry">
            <Array as="points" />
          </mxGeometry>
        </mxCell>
        <mxCell id="vxcYbO20Ohb1d8lzNLRG-104" value="服务注册" style="edgeStyle=orthogonalEdgeStyle;rounded=0;orthogonalLoop=1;jettySize=auto;html=1;exitX=0.5;exitY=0;exitDx=0;exitDy=0;entryX=0.208;entryY=1.014;entryDx=0;entryDy=0;entryPerimeter=0;" edge="1" parent="1" source="vxcYbO20Ohb1d8lzNLRG-23" target="vxcYbO20Ohb1d8lzNLRG-34">
          <mxGeometry relative="1" as="geometry" />
        </mxCell>
        <mxCell id="vxcYbO20Ohb1d8lzNLRG-23" value="" style="rounded=0;whiteSpace=wrap;html=1;" vertex="1" parent="1">
          <mxGeometry x="-189" y="500" width="120" height="280" as="geometry" />
        </mxCell>
        <mxCell id="vxcYbO20Ohb1d8lzNLRG-24" value="网关集群" style="text;html=1;strokeColor=none;fillColor=none;align=center;verticalAlign=middle;whiteSpace=wrap;rounded=0;" vertex="1" parent="1">
          <mxGeometry x="-159" y="740" width="50" height="20" as="geometry" />
        </mxCell>
        <mxCell id="vxcYbO20Ohb1d8lzNLRG-25" value="Gateway" style="rounded=0;whiteSpace=wrap;html=1;fillColor=#FFB570;" vertex="1" parent="1">
          <mxGeometry x="-179" y="530" width="100" height="40" as="geometry" />
        </mxCell>
        <mxCell id="vxcYbO20Ohb1d8lzNLRG-26" value="Gateway" style="rounded=0;whiteSpace=wrap;html=1;fillColor=#FFB570;" vertex="1" parent="1">
          <mxGeometry x="-179" y="600" width="100" height="40" as="geometry" />
        </mxCell>
        <mxCell id="vxcYbO20Ohb1d8lzNLRG-27" value="Gateway" style="rounded=0;whiteSpace=wrap;html=1;fillColor=#FFB570;" vertex="1" parent="1">
          <mxGeometry x="-179" y="670" width="100" height="40" as="geometry" />
        </mxCell>
        <mxCell id="vxcYbO20Ohb1d8lzNLRG-29" value="SpringSecutiry、Oauth2&lt;br&gt;认证中心" style="rounded=0;whiteSpace=wrap;html=1;fillColor=#E6D0DE;" vertex="1" parent="1">
          <mxGeometry x="-209" y="920" width="160" height="70" as="geometry" />
        </mxCell>
        <mxCell id="vxcYbO20Ohb1d8lzNLRG-34" value="" style="rounded=0;whiteSpace=wrap;html=1;" vertex="1" parent="1">
          <mxGeometry x="-190" y="230" width="290" height="180" as="geometry" />
        </mxCell>
        <mxCell id="vxcYbO20Ohb1d8lzNLRG-35" value="Nacos" style="rounded=0;whiteSpace=wrap;html=1;" vertex="1" parent="1">
          <mxGeometry x="-80" y="250" width="80" height="30" as="geometry" />
        </mxCell>
        <mxCell id="vxcYbO20Ohb1d8lzNLRG-36" value="Nacos" style="rounded=0;whiteSpace=wrap;html=1;fillColor=#6666FF;" vertex="1" parent="1">
          <mxGeometry x="-160" y="320" width="80" height="30" as="geometry" />
        </mxCell>
        <mxCell id="vxcYbO20Ohb1d8lzNLRG-42" value="" style="edgeStyle=orthogonalEdgeStyle;rounded=0;orthogonalLoop=1;jettySize=auto;html=1;" edge="1" parent="1" source="vxcYbO20Ohb1d8lzNLRG-37" target="vxcYbO20Ohb1d8lzNLRG-36">
          <mxGeometry relative="1" as="geometry" />
        </mxCell>
        <mxCell id="vxcYbO20Ohb1d8lzNLRG-37" value="Nacos" style="rounded=0;whiteSpace=wrap;html=1;fillColor=#6666FF;" vertex="1" parent="1">
          <mxGeometry x="-10" y="320" width="80" height="30" as="geometry" />
        </mxCell>
        <mxCell id="vxcYbO20Ohb1d8lzNLRG-38" value="注册中心集群&lt;br&gt;配置中心集群" style="text;html=1;strokeColor=none;fillColor=none;align=center;verticalAlign=middle;whiteSpace=wrap;rounded=0;" vertex="1" parent="1">
          <mxGeometry x="-105" y="380" width="120" height="20" as="geometry" />
        </mxCell>
        <mxCell id="vxcYbO20Ohb1d8lzNLRG-39" value="cluster" style="endArrow=classic;startArrow=classic;html=1;entryX=0;entryY=0.5;entryDx=0;entryDy=0;exitX=0.5;exitY=0;exitDx=0;exitDy=0;" edge="1" parent="1" source="vxcYbO20Ohb1d8lzNLRG-36" target="vxcYbO20Ohb1d8lzNLRG-35">
          <mxGeometry width="50" height="50" relative="1" as="geometry">
            <mxPoint x="-130" y="310" as="sourcePoint" />
            <mxPoint x="-100" y="270" as="targetPoint" />
          </mxGeometry>
        </mxCell>
        <mxCell id="vxcYbO20Ohb1d8lzNLRG-40" value="cluster" style="endArrow=classic;startArrow=classic;html=1;entryX=1;entryY=0.5;entryDx=0;entryDy=0;exitX=0.5;exitY=0;exitDx=0;exitDy=0;" edge="1" parent="1" source="vxcYbO20Ohb1d8lzNLRG-37" target="vxcYbO20Ohb1d8lzNLRG-35">
          <mxGeometry width="50" height="50" relative="1" as="geometry">
            <mxPoint x="30" y="310" as="sourcePoint" />
            <mxPoint x="80" y="260" as="targetPoint" />
          </mxGeometry>
        </mxCell>
        <mxCell id="vxcYbO20Ohb1d8lzNLRG-41" value="cluster" style="endArrow=classic;startArrow=classic;html=1;exitX=1;exitY=0.5;exitDx=0;exitDy=0;" edge="1" parent="1" source="vxcYbO20Ohb1d8lzNLRG-36">
          <mxGeometry width="50" height="50" relative="1" as="geometry">
            <mxPoint x="170" y="370" as="sourcePoint" />
            <mxPoint x="-10" y="335" as="targetPoint" />
          </mxGeometry>
        </mxCell>
        <mxCell id="vxcYbO20Ohb1d8lzNLRG-43" value="SpringBootAdmin Server&lt;br&gt;服务监控中心" style="rounded=0;whiteSpace=wrap;html=1;fillColor=#FF3399;" vertex="1" parent="1">
          <mxGeometry x="-190" y="80" width="290" height="70" as="geometry" />
        </mxCell>
        <mxCell id="vxcYbO20Ohb1d8lzNLRG-45" value="获取服务列表" style="endArrow=classic;html=1;entryX=0.5;entryY=1;entryDx=0;entryDy=0;exitX=0.5;exitY=0;exitDx=0;exitDy=0;" edge="1" parent="1" source="vxcYbO20Ohb1d8lzNLRG-34" target="vxcYbO20Ohb1d8lzNLRG-43">
          <mxGeometry width="50" height="50" relative="1" as="geometry">
            <mxPoint x="-60" y="220" as="sourcePoint" />
            <mxPoint x="-10" y="170" as="targetPoint" />
          </mxGeometry>
        </mxCell>
        <mxCell id="vxcYbO20Ohb1d8lzNLRG-101" value="任务调度" style="edgeStyle=orthogonalEdgeStyle;rounded=0;orthogonalLoop=1;jettySize=auto;html=1;exitX=0.75;exitY=1;exitDx=0;exitDy=0;entryX=0.626;entryY=-0.001;entryDx=0;entryDy=0;entryPerimeter=0;" edge="1" parent="1" source="vxcYbO20Ohb1d8lzNLRG-46" target="vxcYbO20Ohb1d8lzNLRG-4">
          <mxGeometry relative="1" as="geometry" />
        </mxCell>
        <mxCell id="vxcYbO20Ohb1d8lzNLRG-46" value="Quartz&lt;br&gt;分布式任务调度系统" style="rounded=0;whiteSpace=wrap;html=1;fillColor=#00FF80;" vertex="1" parent="1">
          <mxGeometry x="280" y="280" width="150" height="70" as="geometry" />
        </mxCell>
        <mxCell id="vxcYbO20Ohb1d8lzNLRG-72" value="Sentinel/LoadBalancer" style="rounded=1;whiteSpace=wrap;html=1;fillColor=#FF9999;" vertex="1" parent="1">
          <mxGeometry x="265" y="590" width="140" height="40" as="geometry" />
        </mxCell>
        <mxCell id="vxcYbO20Ohb1d8lzNLRG-73" value="" style="rounded=0;whiteSpace=wrap;html=1;" vertex="1" parent="1">
          <mxGeometry x="130" y="520" width="120" height="250" as="geometry" />
        </mxCell>
        <mxCell id="vxcYbO20Ohb1d8lzNLRG-74" value="A服务集群" style="text;html=1;strokeColor=none;fillColor=none;align=center;verticalAlign=middle;whiteSpace=wrap;rounded=0;" vertex="1" parent="1">
          <mxGeometry x="157.5" y="741" width="65" height="20" as="geometry" />
        </mxCell>
        <mxCell id="vxcYbO20Ohb1d8lzNLRG-75" value="Service-A" style="rounded=0;whiteSpace=wrap;html=1;fillColor=#97D077;" vertex="1" parent="1">
          <mxGeometry x="140" y="550" width="100" height="40" as="geometry" />
        </mxCell>
        <mxCell id="vxcYbO20Ohb1d8lzNLRG-76" value="Service-A" style="rounded=0;whiteSpace=wrap;html=1;fillColor=#97D077;" vertex="1" parent="1">
          <mxGeometry x="140" y="620" width="100" height="40" as="geometry" />
        </mxCell>
        <mxCell id="vxcYbO20Ohb1d8lzNLRG-77" value="Service-A" style="rounded=0;whiteSpace=wrap;html=1;fillColor=#97D077;" vertex="1" parent="1">
          <mxGeometry x="140" y="690" width="100" height="40" as="geometry" />
        </mxCell>
        <mxCell id="vxcYbO20Ohb1d8lzNLRG-78" value="" style="rounded=0;whiteSpace=wrap;html=1;" vertex="1" parent="1">
          <mxGeometry x="420" y="520" width="120" height="250" as="geometry" />
        </mxCell>
        <mxCell id="vxcYbO20Ohb1d8lzNLRG-79" value="A服务集群" style="text;html=1;strokeColor=none;fillColor=none;align=center;verticalAlign=middle;whiteSpace=wrap;rounded=0;" vertex="1" parent="1">
          <mxGeometry x="447.5" y="741" width="65" height="20" as="geometry" />
        </mxCell>
        <mxCell id="vxcYbO20Ohb1d8lzNLRG-80" value="Service-B" style="rounded=0;whiteSpace=wrap;html=1;fillColor=#97D077;" vertex="1" parent="1">
          <mxGeometry x="430" y="550" width="100" height="40" as="geometry" />
        </mxCell>
        <mxCell id="vxcYbO20Ohb1d8lzNLRG-81" value="Service-B" style="rounded=0;whiteSpace=wrap;html=1;fillColor=#97D077;" vertex="1" parent="1">
          <mxGeometry x="430" y="620" width="100" height="40" as="geometry" />
        </mxCell>
        <mxCell id="vxcYbO20Ohb1d8lzNLRG-82" value="Service-B" style="rounded=0;whiteSpace=wrap;html=1;fillColor=#97D077;" vertex="1" parent="1">
          <mxGeometry x="430" y="690" width="100" height="40" as="geometry" />
        </mxCell>
        <mxCell id="vxcYbO20Ohb1d8lzNLRG-83" value="OpenFeign" style="endArrow=classic;startArrow=classic;html=1;exitX=1;exitY=0.5;exitDx=0;exitDy=0;entryX=0;entryY=0.5;entryDx=0;entryDy=0;" edge="1" parent="1" source="vxcYbO20Ohb1d8lzNLRG-73" target="vxcYbO20Ohb1d8lzNLRG-78">
          <mxGeometry width="50" height="50" relative="1" as="geometry">
            <mxPoint x="310" y="650" as="sourcePoint" />
            <mxPoint x="360" y="600" as="targetPoint" />
          </mxGeometry>
        </mxCell>
        <mxCell id="vxcYbO20Ohb1d8lzNLRG-84" value="Sentinel/LoadBalancer" style="rounded=1;whiteSpace=wrap;html=1;fillColor=#FF9999;" vertex="1" parent="1">
          <mxGeometry x="-50" y="590" width="140" height="40" as="geometry" />
        </mxCell>
        <mxCell id="vxcYbO20Ohb1d8lzNLRG-97" style="edgeStyle=orthogonalEdgeStyle;rounded=0;orthogonalLoop=1;jettySize=auto;html=1;exitX=1;exitY=0.5;exitDx=0;exitDy=0;entryX=0;entryY=0.5;entryDx=0;entryDy=0;" edge="1" parent="1" source="vxcYbO20Ohb1d8lzNLRG-85" target="vxcYbO20Ohb1d8lzNLRG-92">
          <mxGeometry relative="1" as="geometry" />
        </mxCell>
        <mxCell id="vxcYbO20Ohb1d8lzNLRG-85" value="" style="rounded=0;whiteSpace=wrap;html=1;" vertex="1" parent="1">
          <mxGeometry x="-640" y="445" width="140" height="390" as="geometry" />
        </mxCell>
        <mxCell id="vxcYbO20Ohb1d8lzNLRG-86" value="第三方" style="rounded=0;whiteSpace=wrap;html=1;fillColor=#CCFFE6;" vertex="1" parent="1">
          <mxGeometry x="-630" y="475" width="120" height="60" as="geometry" />
        </mxCell>
        <mxCell id="vxcYbO20Ohb1d8lzNLRG-87" value="Web端" style="rounded=0;whiteSpace=wrap;html=1;" vertex="1" parent="1">
          <mxGeometry x="-630" y="555" width="120" height="60" as="geometry" />
        </mxCell>
        <mxCell id="vxcYbO20Ohb1d8lzNLRG-88" value="APP" style="rounded=0;whiteSpace=wrap;html=1;" vertex="1" parent="1">
          <mxGeometry x="-630" y="635" width="120" height="60" as="geometry" />
        </mxCell>
        <mxCell id="vxcYbO20Ohb1d8lzNLRG-89" value="小程序" style="rounded=0;whiteSpace=wrap;html=1;" vertex="1" parent="1">
          <mxGeometry x="-630" y="715" width="120" height="60" as="geometry" />
        </mxCell>
        <mxCell id="vxcYbO20Ohb1d8lzNLRG-90" value="前端门户" style="text;html=1;strokeColor=none;fillColor=none;align=center;verticalAlign=middle;whiteSpace=wrap;rounded=0;" vertex="1" parent="1">
          <mxGeometry x="-595" y="795" width="50" height="20" as="geometry" />
        </mxCell>
        <mxCell id="vxcYbO20Ohb1d8lzNLRG-98" style="edgeStyle=orthogonalEdgeStyle;rounded=0;orthogonalLoop=1;jettySize=auto;html=1;exitX=1;exitY=0.5;exitDx=0;exitDy=0;entryX=0;entryY=0.5;entryDx=0;entryDy=0;" edge="1" parent="1" source="vxcYbO20Ohb1d8lzNLRG-92" target="vxcYbO20Ohb1d8lzNLRG-23">
          <mxGeometry relative="1" as="geometry" />
        </mxCell>
        <mxCell id="vxcYbO20Ohb1d8lzNLRG-92" value="" style="rounded=0;whiteSpace=wrap;html=1;" vertex="1" parent="1">
          <mxGeometry x="-400" y="500" width="120" height="280" as="geometry" />
        </mxCell>
        <mxCell id="vxcYbO20Ohb1d8lzNLRG-93" value="Nginx集群" style="text;html=1;strokeColor=none;fillColor=none;align=center;verticalAlign=middle;whiteSpace=wrap;rounded=0;" vertex="1" parent="1">
          <mxGeometry x="-370" y="740" width="60" height="20" as="geometry" />
        </mxCell>
        <mxCell id="vxcYbO20Ohb1d8lzNLRG-94" value="Nginx" style="rounded=0;whiteSpace=wrap;html=1;fillColor=#9AC7BF;" vertex="1" parent="1">
          <mxGeometry x="-390" y="530" width="100" height="40" as="geometry" />
        </mxCell>
        <mxCell id="vxcYbO20Ohb1d8lzNLRG-95" value="Nginx" style="rounded=0;whiteSpace=wrap;html=1;fillColor=#9AC7BF;" vertex="1" parent="1">
          <mxGeometry x="-390" y="600" width="100" height="40" as="geometry" />
        </mxCell>
        <mxCell id="vxcYbO20Ohb1d8lzNLRG-96" value="Nginx" style="rounded=0;whiteSpace=wrap;html=1;fillColor=#9AC7BF;" vertex="1" parent="1">
          <mxGeometry x="-390" y="660" width="100" height="50" as="geometry" />
        </mxCell>
        <mxCell id="vxcYbO20Ohb1d8lzNLRG-108" value="存储服务" style="text;html=1;strokeColor=none;fillColor=none;align=center;verticalAlign=middle;whiteSpace=wrap;rounded=0;" vertex="1" parent="1">
          <mxGeometry x="673" y="760" width="50" height="20" as="geometry" />
        </mxCell>
        <mxCell id="vxcYbO20Ohb1d8lzNLRG-110" value="Zipkin&lt;br&gt;链路监控中心" style="rounded=0;whiteSpace=wrap;html=1;fillColor=#99CCFF;" vertex="1" parent="1">
          <mxGeometry x="-20" y="920" width="160" height="70" as="geometry" />
        </mxCell>
        <mxCell id="vxcYbO20Ohb1d8lzNLRG-115" value="服务注册" style="edgeStyle=orthogonalEdgeStyle;rounded=0;orthogonalLoop=1;jettySize=auto;html=1;entryX=1;entryY=0.75;entryDx=0;entryDy=0;exitX=0.157;exitY=-0.004;exitDx=0;exitDy=0;exitPerimeter=0;" edge="1" parent="1" source="vxcYbO20Ohb1d8lzNLRG-4" target="vxcYbO20Ohb1d8lzNLRG-34">
          <mxGeometry relative="1" as="geometry">
            <mxPoint x="180" y="490" as="sourcePoint" />
            <mxPoint x="232.5" y="510.0000000000001" as="targetPoint" />
            <Array as="points">
              <mxPoint x="181" y="365" />
            </Array>
          </mxGeometry>
        </mxCell>
        <mxCell id="vxcYbO20Ohb1d8lzNLRG-117" value="数据收集" style="edgeStyle=orthogonalEdgeStyle;rounded=0;orthogonalLoop=1;jettySize=auto;html=1;entryX=0.25;entryY=0;entryDx=0;entryDy=0;exitX=0.614;exitY=1.006;exitDx=0;exitDy=0;exitPerimeter=0;" edge="1" parent="1" source="vxcYbO20Ohb1d8lzNLRG-23" target="vxcYbO20Ohb1d8lzNLRG-110">
          <mxGeometry relative="1" as="geometry">
            <mxPoint x="-106.25000000000023" y="835" as="sourcePoint" />
            <mxPoint x="16.25" y="1015.0000000000001" as="targetPoint" />
            <Array as="points">
              <mxPoint x="-115" y="850" />
              <mxPoint x="20" y="850" />
            </Array>
          </mxGeometry>
        </mxCell>
        <mxCell id="vxcYbO20Ohb1d8lzNLRG-118" value="数据收集" style="edgeStyle=orthogonalEdgeStyle;rounded=0;orthogonalLoop=1;jettySize=auto;html=1;entryX=0.75;entryY=0;entryDx=0;entryDy=0;" edge="1" parent="1" target="vxcYbO20Ohb1d8lzNLRG-110">
          <mxGeometry relative="1" as="geometry">
            <mxPoint x="233" y="780" as="sourcePoint" />
            <mxPoint x="200.00000000000023" y="953.32" as="targetPoint" />
            <Array as="points">
              <mxPoint x="233" y="850" />
              <mxPoint x="100" y="850" />
            </Array>
          </mxGeometry>
        </mxCell>
        <mxCell id="vxcYbO20Ohb1d8lzNLRG-119" value="Sleuth" style="rounded=0;whiteSpace=wrap;html=1;fillColor=#A9C4EB;" vertex="1" parent="1">
          <mxGeometry x="-85" y="795" width="80" height="30" as="geometry" />
        </mxCell>
        <mxCell id="vxcYbO20Ohb1d8lzNLRG-120" value="Sleuth" style="rounded=0;whiteSpace=wrap;html=1;fillColor=#A9C4EB;" vertex="1" parent="1">
          <mxGeometry x="140" y="795" width="80" height="30" as="geometry" />
        </mxCell>
        <mxCell id="vxcYbO20Ohb1d8lzNLRG-121" value="Nacos" style="rounded=0;whiteSpace=wrap;html=1;fillColor=#6666FF;" vertex="1" parent="1">
          <mxGeometry x="-80" y="250" width="80" height="30" as="geometry" />
        </mxCell>
        <mxCell id="vxcYbO20Ohb1d8lzNLRG-122" value="小程序" style="rounded=0;whiteSpace=wrap;html=1;fillColor=#CCFFE6;" vertex="1" parent="1">
          <mxGeometry x="-630" y="715" width="120" height="60" as="geometry" />
        </mxCell>
        <mxCell id="vxcYbO20Ohb1d8lzNLRG-123" value="APP" style="rounded=0;whiteSpace=wrap;html=1;fillColor=#CCFFE6;" vertex="1" parent="1">
          <mxGeometry x="-630" y="635" width="120" height="60" as="geometry" />
        </mxCell>
        <mxCell id="vxcYbO20Ohb1d8lzNLRG-124" value="Web端" style="rounded=0;whiteSpace=wrap;html=1;fillColor=#CCFFE6;" vertex="1" parent="1">
          <mxGeometry x="-630" y="555" width="120" height="60" as="geometry" />
        </mxCell>
      </root>
    </mxGraphModel>
  </diagram>
</mxfile>
